<?xml version="1.0" encoding="UTF-8" standalone="no"?>
<!DOCTYPE svg PUBLIC "-//W3C//DTD SVG 1.1//EN"
 "http://www.w3.org/Graphics/SVG/1.1/DTD/svg11.dtd">
<!-- Generated by graphviz version 3.0.0 (20220226.1711)
 -->
<!-- Pages: 1 -->
<svg width="315pt" height="299pt"
 viewBox="0.00 0.00 315.00 299.00" xmlns="http://www.w3.org/2000/svg" xmlns:xlink="http://www.w3.org/1999/xlink">
<g id="graph0" class="graph" transform="scale(1 1) rotate(0) translate(4 295)">
<polygon fill="white" stroke="transparent" points="-4,4 -4,-295 311,-295 311,4 -4,4"/>
<!-- fake -->
<g id="node1" class="node">
<title>fake</title>
</g>
<!-- 0 -->
<g id="node2" class="node">
<title>0</title>
<ellipse fill="none" stroke="black" cx="56" cy="-200" rx="27" ry="18"/>
<text text-anchor="middle" x="56" y="-196.3" font-family="Times New Roman,serif" font-size="14.00">0</text>
</g>
<!-- fake&#45;&gt;0 -->
<g id="edge1" class="edge">
<title>fake&#45;&gt;0</title>
<path fill="none" stroke="black" stroke-width="2" d="M56,-254.81C56,-246.79 56,-237.05 56,-228.07"/>
<polygon fill="black" stroke="black" stroke-width="2" points="59.5,-228.03 56,-218.03 52.5,-228.03 59.5,-228.03"/>
</g>
<!-- 0&#45;&gt;0 -->
<g id="edge4" class="edge">
<title>0&#45;&gt;0</title>
<path fill="none" stroke="black" d="M81.44,-206.69C92.03,-207.15 101,-204.92 101,-200 101,-196.77 97.14,-194.7 91.49,-193.79"/>
<polygon fill="black" stroke="black" points="91.6,-190.29 81.44,-193.31 91.27,-197.28 91.6,-190.29"/>
<text text-anchor="middle" x="121" y="-196.3" font-family="Times New Roman,serif" font-size="14.00">a &amp; ~b</text>
</g>
<!-- 1 -->
<g id="node3" class="node">
<title>1</title>
<ellipse fill="none" stroke="black" cx="27" cy="-18" rx="27" ry="18"/>
<text text-anchor="middle" x="27" y="-14.3" font-family="Times New Roman,serif" font-size="14.00">1</text>
</g>
<!-- 0&#45;&gt;1 -->
<g id="edge6" class="edge">
<title>0&#45;&gt;1</title>
<path fill="none" stroke="black" d="M44.9,-183.42C36.21,-170.18 24.8,-150.32 20,-131 12.95,-102.6 16.58,-68.97 20.79,-46.02"/>
<polygon fill="black" stroke="black" points="24.27,-46.48 22.79,-35.99 17.4,-45.11 24.27,-46.48"/>
<text text-anchor="middle" x="74" y="-105.3" font-family="Times New Roman,serif" font-size="14.00">(a &amp; b) | (~a &amp; ~b)</text>
</g>
<!-- 2 -->
<g id="node4" class="node">
<title>2</title>
<ellipse fill="none" stroke="black" cx="159" cy="-109" rx="18" ry="18"/>
<ellipse fill="none" stroke="black" cx="159" cy="-109" rx="22" ry="22"/>
<text text-anchor="middle" x="159" y="-105.3" font-family="Times New Roman,serif" font-size="14.00">2</text>
</g>
<!-- 0&#45;&gt;2 -->
<g id="edge5" class="edge">
<title>0&#45;&gt;2</title>
<path fill="none" stroke="black" d="M72.09,-185.09C88.93,-170.55 115.54,-147.55 134.88,-130.84"/>
<polygon fill="black" stroke="black" points="137.4,-133.29 142.68,-124.1 132.82,-127.99 137.4,-133.29"/>
<text text-anchor="middle" x="133" y="-152.8" font-family="Times New Roman,serif" font-size="14.00">b &amp; ~a</text>
</g>
<!-- 1&#45;&gt;1 -->
<g id="edge7" class="edge">
<title>1&#45;&gt;1</title>
<path fill="none" stroke="black" d="M51.53,-25.75C62.51,-26.49 72,-23.91 72,-18 72,-14.03 67.72,-11.56 61.57,-10.59"/>
<polygon fill="black" stroke="black" points="61.65,-7.09 51.53,-10.25 61.41,-14.09 61.65,-7.09"/>
<text text-anchor="middle" x="85.5" y="-14.3" font-family="Times New Roman,serif" font-size="14.00">True</text>
</g>
<!-- 2&#45;&gt;1 -->
<g id="edge3" class="edge">
<title>2&#45;&gt;1</title>
<path fill="none" stroke="black" d="M141.2,-96C118.69,-80.82 79.74,-54.56 53.67,-36.98"/>
<polygon fill="black" stroke="black" points="55.62,-34.07 45.37,-31.38 51.7,-39.88 55.62,-34.07"/>
<text text-anchor="middle" x="154" y="-57.8" font-family="Times New Roman,serif" font-size="14.00">(a &amp; b) | (~a &amp; ~b)</text>
</g>
<!-- 2&#45;&gt;2 -->
<g id="edge2" class="edge">
<title>2&#45;&gt;2</title>
<path fill="none" stroke="black" d="M179.58,-117.37C189.84,-118.53 199,-115.74 199,-109 199,-104.68 195.24,-101.99 189.84,-100.91"/>
<polygon fill="black" stroke="black" points="189.67,-97.41 179.58,-100.63 189.48,-104.4 189.67,-97.41"/>
<text text-anchor="middle" x="253" y="-105.3" font-family="Times New Roman,serif" font-size="14.00">(a &amp; ~b) | (b &amp; ~a)</text>
</g>
</g>
</svg>
