<?xml version="1.0" encoding="UTF-8" standalone="no"?>
<!DOCTYPE svg PUBLIC "-//W3C//DTD SVG 1.1//EN"
 "http://www.w3.org/Graphics/SVG/1.1/DTD/svg11.dtd">
<!-- Generated by graphviz version 3.0.0 (20220226.1711)
 -->
<!-- Pages: 1 -->
<svg width="740pt" height="230pt"
 viewBox="0.00 0.00 740.00 230.00" xmlns="http://www.w3.org/2000/svg" xmlns:xlink="http://www.w3.org/1999/xlink">
<g id="graph0" class="graph" transform="scale(1 1) rotate(0) translate(4 226)">
<polygon fill="white" stroke="transparent" points="-4,4 -4,-226 736,-226 736,4 -4,4"/>
<!-- fake -->
<g id="node1" class="node">
<title>fake</title>
</g>
<!-- ((&#39;a1&#39;, &#39;b1&#39;), 0) -->
<g id="node3" class="node">
<title>((&#39;a1&#39;, &#39;b1&#39;), 0)</title>
<polygon fill="none" stroke="black" points="186,-74 91,-74 91,-38 186,-38 186,-74"/>
<text text-anchor="middle" x="138.5" y="-52.3" font-family="Times New Roman,serif" font-size="14.00">((&#39;a1&#39;, &#39;b1&#39;), 0)</text>
</g>
<!-- fake&#45;&gt;((&#39;a1&#39;, &#39;b1&#39;), 0) -->
<g id="edge1" class="edge">
<title>fake&#45;&gt;((&#39;a1&#39;, &#39;b1&#39;), 0)</title>
<path fill="none" stroke="black" stroke-width="2" d="M54.23,-56C62.31,-56 71.55,-56 80.86,-56"/>
<polygon fill="black" stroke="black" stroke-width="2" points="80.94,-59.5 90.94,-56 80.94,-52.5 80.94,-59.5"/>
</g>
<!-- ((&#39;a_broken&#39;, &#39;b1&#39;), 2) -->
<g id="node2" class="node">
<title>((&#39;a_broken&#39;, &#39;b1&#39;), 2)</title>
<polygon fill="none" stroke="black" points="732,-85 597,-85 597,-49 732,-49 732,-85"/>
<text text-anchor="middle" x="664.5" y="-63.3" font-family="Times New Roman,serif" font-size="14.00">((&#39;a_broken&#39;, &#39;b1&#39;), 2)</text>
</g>
<!-- ((&#39;a_broken&#39;, &#39;b1&#39;), 2)&#45;&gt;((&#39;a_broken&#39;, &#39;b1&#39;), 2) -->
<g id="edge14" class="edge">
<title>((&#39;a_broken&#39;, &#39;b1&#39;), 2)&#45;&gt;((&#39;a_broken&#39;, &#39;b1&#39;), 2)</title>
<path fill="none" stroke="black" d="M652.2,-85.15C650.31,-94.54 654.41,-103 664.5,-103 670.65,-103 674.58,-99.86 676.28,-95.28"/>
<polygon fill="black" stroke="black" points="679.78,-95.32 676.8,-85.15 672.79,-94.96 679.78,-95.32"/>
<text text-anchor="middle" x="664.5" y="-106.8" font-family="Times New Roman,serif" font-size="14.00">(&#39;b&#39;, 1),26.0,1.0</text>
</g>
<!-- ((&#39;a_broken&#39;, &#39;b1&#39;), 2)&#45;&gt;((&#39;a_broken&#39;, &#39;b1&#39;), 2) -->
<g id="edge15" class="edge">
<title>((&#39;a_broken&#39;, &#39;b1&#39;), 2)&#45;&gt;((&#39;a_broken&#39;, &#39;b1&#39;), 2)</title>
<path fill="none" stroke="black" d="M643.88,-85.26C633.19,-102.4 640.06,-121 664.5,-121 684.55,-121 692.77,-108.49 689.18,-94.52"/>
<polygon fill="black" stroke="black" points="692.34,-93.01 685.12,-85.26 685.93,-95.82 692.34,-93.01"/>
<text text-anchor="middle" x="664.5" y="-124.8" font-family="Times New Roman,serif" font-size="14.00">(&#39;act_b&#39;, 1),0.0,1.0</text>
</g>
<!-- ((&#39;a1&#39;, &#39;b1&#39;), 2) -->
<g id="node4" class="node">
<title>((&#39;a1&#39;, &#39;b1&#39;), 2)</title>
<polygon fill="none" stroke="black" points="439,-123 344,-123 344,-87 439,-87 439,-123"/>
<text text-anchor="middle" x="391.5" y="-101.3" font-family="Times New Roman,serif" font-size="14.00">((&#39;a1&#39;, &#39;b1&#39;), 2)</text>
</g>
<!-- ((&#39;a_broken&#39;, &#39;b1&#39;), 2)&#45;&gt;((&#39;a1&#39;, &#39;b1&#39;), 2) -->
<g id="edge13" class="edge">
<title>((&#39;a_broken&#39;, &#39;b1&#39;), 2)&#45;&gt;((&#39;a1&#39;, &#39;b1&#39;), 2)</title>
<path fill="none" stroke="black" d="M596.61,-55.08C560.29,-51.27 515.13,-50.92 477,-64 467.41,-67.29 467.78,-72.93 459,-78 455.58,-79.98 451.98,-81.88 448.31,-83.69"/>
<polygon fill="black" stroke="black" points="446.65,-80.6 439.07,-88.01 449.61,-86.94 446.65,-80.6"/>
<text text-anchor="middle" x="528" y="-67.8" font-family="Times New Roman,serif" font-size="14.00">(&#39;act_a&#39;, 0),0.0,1.0</text>
</g>
<!-- ((&#39;a1&#39;, &#39;b1&#39;), 0)&#45;&gt;((&#39;a1&#39;, &#39;b1&#39;), 0) -->
<g id="edge2" class="edge">
<title>((&#39;a1&#39;, &#39;b1&#39;), 0)&#45;&gt;((&#39;a1&#39;, &#39;b1&#39;), 0)</title>
<path fill="none" stroke="black" d="M132.53,-74.15C131.61,-83.54 133.6,-92 138.5,-92 141.48,-92 143.39,-88.86 144.21,-84.28"/>
<polygon fill="black" stroke="black" points="147.72,-84.24 144.47,-74.15 140.72,-84.06 147.72,-84.24"/>
<text text-anchor="middle" x="138.5" y="-95.8" font-family="Times New Roman,serif" font-size="14.00">(&#39;a&#39;, 0),3.0,0.95</text>
</g>
<!-- ((&#39;a1&#39;, &#39;b1&#39;), 0)&#45;&gt;((&#39;a1&#39;, &#39;b1&#39;), 0) -->
<g id="edge5" class="edge">
<title>((&#39;a1&#39;, &#39;b1&#39;), 0)&#45;&gt;((&#39;a1&#39;, &#39;b1&#39;), 0)</title>
<path fill="none" stroke="black" d="M128.49,-74.26C123.31,-91.4 126.64,-110 138.5,-110 148.04,-110 152.07,-97.96 150.57,-84.32"/>
<polygon fill="black" stroke="black" points="153.94,-83.35 148.51,-74.26 147.09,-84.76 153.94,-83.35"/>
<text text-anchor="middle" x="138.5" y="-113.8" font-family="Times New Roman,serif" font-size="14.00">(&#39;act_b&#39;, 1),0.0,1.0</text>
</g>
<!-- ((&#39;a1&#39;, &#39;b1&#39;), 0)&#45;&gt;((&#39;a1&#39;, &#39;b1&#39;), 2) -->
<g id="edge4" class="edge">
<title>((&#39;a1&#39;, &#39;b1&#39;), 0)&#45;&gt;((&#39;a1&#39;, &#39;b1&#39;), 2)</title>
<path fill="none" stroke="black" d="M186.12,-65.1C227.82,-73.24 289.04,-85.19 333.61,-93.89"/>
<polygon fill="black" stroke="black" points="333.22,-97.38 343.7,-95.86 334.56,-90.51 333.22,-97.38"/>
<text text-anchor="middle" x="255" y="-90.8" font-family="Times New Roman,serif" font-size="14.00">(&#39;b&#39;, 1),26.0,1.0</text>
</g>
<!-- ((&#39;a_broken&#39;, &#39;b1&#39;), 0) -->
<g id="node5" class="node">
<title>((&#39;a_broken&#39;, &#39;b1&#39;), 0)</title>
<polygon fill="none" stroke="black" points="459,-36 324,-36 324,0 459,0 459,-36"/>
<text text-anchor="middle" x="391.5" y="-14.3" font-family="Times New Roman,serif" font-size="14.00">((&#39;a_broken&#39;, &#39;b1&#39;), 0)</text>
</g>
<!-- ((&#39;a1&#39;, &#39;b1&#39;), 0)&#45;&gt;((&#39;a_broken&#39;, &#39;b1&#39;), 0) -->
<g id="edge3" class="edge">
<title>((&#39;a1&#39;, &#39;b1&#39;), 0)&#45;&gt;((&#39;a_broken&#39;, &#39;b1&#39;), 0)</title>
<path fill="none" stroke="black" d="M186.25,-50.53C219.68,-46.45 265.7,-40.47 306,-34 308.52,-33.6 311.07,-33.17 313.65,-32.74"/>
<polygon fill="black" stroke="black" points="314.42,-36.16 323.68,-31.01 313.23,-29.26 314.42,-36.16"/>
<text text-anchor="middle" x="255" y="-50.8" font-family="Times New Roman,serif" font-size="14.00">(&#39;a&#39;, 0),3.0,0.05</text>
</g>
<!-- ((&#39;a1&#39;, &#39;b1&#39;), 2)&#45;&gt;((&#39;a_broken&#39;, &#39;b1&#39;), 2) -->
<g id="edge10" class="edge">
<title>((&#39;a1&#39;, &#39;b1&#39;), 2)&#45;&gt;((&#39;a_broken&#39;, &#39;b1&#39;), 2)</title>
<path fill="none" stroke="black" d="M439.38,-100.39C477.17,-96.44 531.63,-90.27 579,-83 581.52,-82.61 584.08,-82.21 586.66,-81.79"/>
<polygon fill="black" stroke="black" points="587.41,-85.21 596.69,-80.1 586.25,-78.31 587.41,-85.21"/>
<text text-anchor="middle" x="528" y="-99.8" font-family="Times New Roman,serif" font-size="14.00">(&#39;a&#39;, 0),23.0,0.05</text>
</g>
<!-- ((&#39;a1&#39;, &#39;b1&#39;), 2)&#45;&gt;((&#39;a1&#39;, &#39;b1&#39;), 2) -->
<g id="edge9" class="edge">
<title>((&#39;a1&#39;, &#39;b1&#39;), 2)&#45;&gt;((&#39;a1&#39;, &#39;b1&#39;), 2)</title>
<path fill="none" stroke="black" d="M383.3,-123.15C382.04,-132.54 384.77,-141 391.5,-141 395.6,-141 398.22,-137.86 399.35,-133.28"/>
<polygon fill="black" stroke="black" points="402.85,-133.27 399.7,-123.15 395.86,-133.03 402.85,-133.27"/>
<text text-anchor="middle" x="391.5" y="-144.8" font-family="Times New Roman,serif" font-size="14.00">(&#39;a&#39;, 0),23.0,0.95</text>
</g>
<!-- ((&#39;a1&#39;, &#39;b1&#39;), 2)&#45;&gt;((&#39;a1&#39;, &#39;b1&#39;), 2) -->
<g id="edge11" class="edge">
<title>((&#39;a1&#39;, &#39;b1&#39;), 2)&#45;&gt;((&#39;a1&#39;, &#39;b1&#39;), 2)</title>
<path fill="none" stroke="black" d="M377.75,-123.26C370.63,-140.4 375.21,-159 391.5,-159 404.74,-159 410.24,-146.72 408.02,-132.92"/>
<polygon fill="black" stroke="black" points="411.37,-131.9 405.25,-123.26 404.64,-133.84 411.37,-131.9"/>
<text text-anchor="middle" x="391.5" y="-162.8" font-family="Times New Roman,serif" font-size="14.00">(&#39;b&#39;, 1),26.0,1.0</text>
</g>
<!-- ((&#39;a1&#39;, &#39;b1&#39;), 2)&#45;&gt;((&#39;a1&#39;, &#39;b1&#39;), 2) -->
<g id="edge12" class="edge">
<title>((&#39;a1&#39;, &#39;b1&#39;), 2)&#45;&gt;((&#39;a1&#39;, &#39;b1&#39;), 2)</title>
<path fill="none" stroke="black" d="M374.29,-123.08C359.07,-147.41 364.8,-177 391.5,-177 414.96,-177 422.23,-154.14 413.31,-132.09"/>
<polygon fill="black" stroke="black" points="416.38,-130.39 408.71,-123.08 410.14,-133.57 416.38,-130.39"/>
<text text-anchor="middle" x="391.5" y="-180.8" font-family="Times New Roman,serif" font-size="14.00">(&#39;act_b&#39;, 1),0.0,1.0</text>
</g>
<!-- ((&#39;a_broken&#39;, &#39;b1&#39;), 0)&#45;&gt;((&#39;a_broken&#39;, &#39;b1&#39;), 2) -->
<g id="edge7" class="edge">
<title>((&#39;a_broken&#39;, &#39;b1&#39;), 0)&#45;&gt;((&#39;a_broken&#39;, &#39;b1&#39;), 2)</title>
<path fill="none" stroke="black" d="M459.28,-18.5C495.18,-19.99 539.95,-23.8 579,-33 591.39,-35.92 604.34,-40.36 616.27,-45.08"/>
<polygon fill="black" stroke="black" points="615.02,-48.35 625.6,-48.91 617.67,-41.88 615.02,-48.35"/>
<text text-anchor="middle" x="528" y="-36.8" font-family="Times New Roman,serif" font-size="14.00">(&#39;b&#39;, 1),26.0,1.0</text>
</g>
<!-- ((&#39;a_broken&#39;, &#39;b1&#39;), 0)&#45;&gt;((&#39;a1&#39;, &#39;b1&#39;), 0) -->
<g id="edge6" class="edge">
<title>((&#39;a_broken&#39;, &#39;b1&#39;), 0)&#45;&gt;((&#39;a1&#39;, &#39;b1&#39;), 0)</title>
<path fill="none" stroke="black" d="M323.63,-7.48C287.52,-4.14 242.56,-3.78 204,-15 191.76,-18.56 179.62,-25.23 169.23,-32.16"/>
<polygon fill="black" stroke="black" points="167.11,-29.37 160.95,-37.99 171.14,-35.1 167.11,-29.37"/>
<text text-anchor="middle" x="255" y="-18.8" font-family="Times New Roman,serif" font-size="14.00">(&#39;act_a&#39;, 0),0.0,1.0</text>
</g>
<!-- ((&#39;a_broken&#39;, &#39;b1&#39;), 0)&#45;&gt;((&#39;a_broken&#39;, &#39;b1&#39;), 0) -->
<g id="edge8" class="edge">
<title>((&#39;a_broken&#39;, &#39;b1&#39;), 0)&#45;&gt;((&#39;a_broken&#39;, &#39;b1&#39;), 0)</title>
<path fill="none" stroke="black" d="M366.9,-36.15C363.11,-45.54 371.31,-54 391.5,-54 403.8,-54 411.65,-50.86 415.05,-46.28"/>
<polygon fill="black" stroke="black" points="418.55,-46.46 416.1,-36.15 411.59,-45.74 418.55,-46.46"/>
<text text-anchor="middle" x="391.5" y="-57.8" font-family="Times New Roman,serif" font-size="14.00">(&#39;act_b&#39;, 1),0.0,1.0</text>
</g>
</g>
</svg>
