<?xml version="1.0" encoding="UTF-8" standalone="no"?>
<!DOCTYPE svg PUBLIC "-//W3C//DTD SVG 1.1//EN"
 "http://www.w3.org/Graphics/SVG/1.1/DTD/svg11.dtd">
<!-- Generated by graphviz version 3.0.0 (20220226.1711)
 -->
<!-- Pages: 1 -->
<svg width="496pt" height="141pt"
 viewBox="0.00 0.00 496.00 141.00" xmlns="http://www.w3.org/2000/svg" xmlns:xlink="http://www.w3.org/1999/xlink">
<g id="graph0" class="graph" transform="scale(1 1) rotate(0) translate(4 137)">
<polygon fill="white" stroke="transparent" points="-4,4 -4,-137 492,-137 492,4 -4,4"/>
<!-- fake -->
<g id="node1" class="node">
<title>fake</title>
</g>
<!-- 0 -->
<g id="node2" class="node">
<title>0</title>
<polygon fill="none" stroke="black" points="145,-96 91,-96 91,-60 145,-60 145,-96"/>
<text text-anchor="middle" x="118" y="-74.3" font-family="Times New Roman,serif" font-size="14.00">0</text>
</g>
<!-- fake&#45;&gt;0 -->
<g id="edge1" class="edge">
<title>fake&#45;&gt;0</title>
<path fill="none" stroke="black" stroke-width="2" d="M54.22,-78C62.55,-78 71.91,-78 80.82,-78"/>
<polygon fill="black" stroke="black" stroke-width="2" points="80.97,-81.5 90.97,-78 80.97,-74.5 80.97,-81.5"/>
</g>
<!-- 0&#45;&gt;0 -->
<g id="edge2" class="edge">
<title>0&#45;&gt;0</title>
<path fill="none" stroke="black" d="M110.04,-96.15C108.82,-105.54 111.47,-114 118,-114 121.98,-114 124.52,-110.86 125.62,-106.28"/>
<polygon fill="black" stroke="black" points="129.12,-106.26 125.96,-96.15 122.13,-106.03 129.12,-106.26"/>
<text text-anchor="middle" x="118" y="-117.8" font-family="Times New Roman,serif" font-size="14.00">a,0.0,1.0</text>
</g>
<!-- 1 -->
<g id="node3" class="node">
<title>1</title>
<polygon fill="none" stroke="black" points="477,-70.54 477,-85.46 461.18,-96 438.82,-96 423,-85.46 423,-70.54 438.82,-60 461.18,-60 477,-70.54"/>
<polygon fill="none" stroke="black" points="481,-68.4 481,-87.6 462.39,-100 437.61,-100 419,-87.6 419,-68.4 437.61,-56 462.39,-56 481,-68.4"/>
<text text-anchor="middle" x="450" y="-74.3" font-family="Times New Roman,serif" font-size="14.00">1</text>
</g>
<!-- 0&#45;&gt;1 -->
<g id="edge4" class="edge">
<title>0&#45;&gt;1</title>
<path fill="none" stroke="black" d="M145.23,-88.06C167.63,-96.08 200.91,-106.66 231,-111 293.56,-120.03 366.12,-103.68 409.75,-90.93"/>
<polygon fill="black" stroke="black" points="410.83,-94.26 419.4,-88.03 408.82,-87.56 410.83,-94.26"/>
<text text-anchor="middle" x="269" y="-116.8" font-family="Times New Roman,serif" font-size="14.00">failure,0.0,1.0</text>
</g>
<!-- 2 -->
<g id="node4" class="node">
<title>2</title>
<polygon fill="none" stroke="black" points="296,-36 242,-36 242,0 296,0 296,-36"/>
<text text-anchor="middle" x="269" y="-14.3" font-family="Times New Roman,serif" font-size="14.00">2</text>
</g>
<!-- 0&#45;&gt;2 -->
<g id="edge3" class="edge">
<title>0&#45;&gt;2</title>
<path fill="none" stroke="black" d="M145.3,-67.41C169.55,-57.64 205.76,-43.06 232.56,-32.27"/>
<polygon fill="black" stroke="black" points="234,-35.46 241.97,-28.48 231.38,-28.97 234,-35.46"/>
<text text-anchor="middle" x="188" y="-63.8" font-family="Times New Roman,serif" font-size="14.00">b,2.0,1.0</text>
</g>
<!-- 1&#45;&gt;1 -->
<g id="edge5" class="edge">
<title>1&#45;&gt;1</title>
<path fill="none" stroke="black" d="M434.44,-98.17C432.05,-108.6 437.23,-118 450,-118 458.38,-118 463.49,-113.95 465.34,-108.22"/>
<polygon fill="black" stroke="black" points="468.84,-108.24 465.56,-98.17 461.84,-108.09 468.84,-108.24"/>
<text text-anchor="middle" x="450" y="-121.8" font-family="Times New Roman,serif" font-size="14.00">failure,0.0,1.0</text>
</g>
<!-- 2&#45;&gt;1 -->
<g id="edge6" class="edge">
<title>2&#45;&gt;1</title>
<path fill="none" stroke="black" d="M296.03,-26.72C325.86,-36.72 375.07,-53.22 409.6,-64.79"/>
<polygon fill="black" stroke="black" points="408.77,-68.21 419.36,-68.07 410.99,-61.57 408.77,-68.21"/>
<text text-anchor="middle" x="363" y="-64.8" font-family="Times New Roman,serif" font-size="14.00">failure,0.0,1.0</text>
</g>
<!-- 2&#45;&gt;2 -->
<g id="edge7" class="edge">
<title>2&#45;&gt;2</title>
<path fill="none" stroke="black" d="M261.76,-36.15C260.65,-45.54 263.06,-54 269,-54 272.62,-54 274.93,-50.86 275.93,-46.28"/>
<polygon fill="black" stroke="black" points="279.43,-46.25 276.24,-36.15 272.43,-46.04 279.43,-46.25"/>
<text text-anchor="middle" x="269" y="-57.8" font-family="Times New Roman,serif" font-size="14.00">a,2.0,1.0</text>
</g>
<!-- 2&#45;&gt;2 -->
<g id="edge8" class="edge">
<title>2&#45;&gt;2</title>
<path fill="none" stroke="black" d="M256.87,-36.26C250.58,-53.4 254.62,-72 269,-72 280.57,-72 285.44,-59.96 283.63,-46.32"/>
<polygon fill="black" stroke="black" points="286.94,-45.12 281.13,-36.26 280.15,-46.81 286.94,-45.12"/>
<text text-anchor="middle" x="269" y="-75.8" font-family="Times New Roman,serif" font-size="14.00">b,2.0,1.0</text>
</g>
</g>
</svg>
