<?xml version="1.0" encoding="UTF-8" standalone="no"?>
<!DOCTYPE svg PUBLIC "-//W3C//DTD SVG 1.1//EN"
 "http://www.w3.org/Graphics/SVG/1.1/DTD/svg11.dtd">
<!-- Generated by graphviz version 3.0.0 (20220226.1711)
 -->
<!-- Pages: 1 -->
<svg width="181pt" height="122pt"
 viewBox="0.00 0.00 180.65 122.30" xmlns="http://www.w3.org/2000/svg" xmlns:xlink="http://www.w3.org/1999/xlink">
<g id="graph0" class="graph" transform="scale(1 1) rotate(0) translate(4 118.3)">
<polygon fill="white" stroke="transparent" points="-4,4 -4,-118.3 176.65,-118.3 176.65,4 -4,4"/>
<!-- fake -->
<g id="node1" class="node">
<title>fake</title>
</g>
<!-- b1 -->
<g id="node2" class="node">
<title>b1</title>
<ellipse fill="none" stroke="black" cx="115.15" cy="-24.15" rx="20.27" ry="20.27"/>
<ellipse fill="none" stroke="black" cx="115.15" cy="-24.15" rx="24.3" ry="24.3"/>
<text text-anchor="middle" x="115.15" y="-20.45" font-family="Times New Roman,serif" font-size="14.00">b1</text>
</g>
<!-- fake&#45;&gt;b1 -->
<g id="edge1" class="edge">
<title>fake&#45;&gt;b1</title>
<path fill="none" stroke="black" stroke-width="2" d="M54.32,-24.15C62.62,-24.15 71.9,-24.15 80.64,-24.15"/>
<polygon fill="black" stroke="black" stroke-width="2" points="80.91,-27.65 90.91,-24.15 80.91,-20.65 80.91,-27.65"/>
</g>
<!-- b1&#45;&gt;b1 -->
<g id="edge2" class="edge">
<title>b1&#45;&gt;b1</title>
<path fill="none" stroke="black" d="M111.25,-47.98C110.98,-57.89 112.28,-66.3 115.15,-66.3 116.94,-66.3 118.12,-63.01 118.69,-58.13"/>
<polygon fill="black" stroke="black" points="122.19,-58.1 119.05,-47.98 115.2,-57.85 122.19,-58.1"/>
<text text-anchor="middle" x="115.15" y="-70.1" font-family="Times New Roman,serif" font-size="14.00">b, 1.0, (2.0, 2.0)</text>
</g>
<!-- b1&#45;&gt;b1 -->
<g id="edge3" class="edge">
<title>b1&#45;&gt;b1</title>
<path fill="none" stroke="black" d="M108.29,-47.61C105.73,-65.77 108.01,-84.3 115.15,-84.3 120.95,-84.3 123.54,-72.07 122.94,-57.74"/>
<polygon fill="black" stroke="black" points="126.41,-57.25 122.01,-47.61 119.44,-57.89 126.41,-57.25"/>
<text text-anchor="middle" x="115.15" y="-88.1" font-family="Times New Roman,serif" font-size="14.00">act_b, 1.0, (0.0, 0.0)</text>
</g>
</g>
</svg>
