<?xml version="1.0" encoding="UTF-8" standalone="no"?>
<!DOCTYPE svg PUBLIC "-//W3C//DTD SVG 1.1//EN"
 "http://www.w3.org/Graphics/SVG/1.1/DTD/svg11.dtd">
<!-- Generated by graphviz version 3.0.0 (20220226.1711)
 -->
<!-- Pages: 1 -->
<svg width="384pt" height="109pt"
 viewBox="0.00 0.00 384.39 108.69" xmlns="http://www.w3.org/2000/svg" xmlns:xlink="http://www.w3.org/1999/xlink">
<g id="graph0" class="graph" transform="scale(1 1) rotate(0) translate(4 104.69)">
<polygon fill="white" stroke="transparent" points="-4,4 -4,-104.69 380.39,-104.69 380.39,4 -4,4"/>
<!-- fake -->
<g id="node1" class="node">
<title>fake</title>
</g>
<!-- a1 -->
<g id="node3" class="node">
<title>a1</title>
<ellipse fill="none" stroke="black" cx="113.85" cy="-44.85" rx="18.72" ry="18.72"/>
<ellipse fill="none" stroke="black" cx="113.85" cy="-44.85" rx="22.7" ry="22.7"/>
<text text-anchor="middle" x="113.85" y="-41.15" font-family="Times New Roman,serif" font-size="14.00">a1</text>
</g>
<!-- fake&#45;&gt;a1 -->
<g id="edge1" class="edge">
<title>fake&#45;&gt;a1</title>
<path fill="none" stroke="black" stroke-width="2" d="M54.38,-44.85C62.68,-44.85 71.94,-44.85 80.6,-44.85"/>
<polygon fill="black" stroke="black" stroke-width="2" points="80.76,-48.35 90.76,-44.85 80.76,-41.35 80.76,-48.35"/>
</g>
<!-- a_broken -->
<g id="node2" class="node">
<title>a_broken</title>
<ellipse fill="none" stroke="black" cx="331.54" cy="-44.85" rx="44.69" ry="44.69"/>
<text text-anchor="middle" x="331.54" y="-41.15" font-family="Times New Roman,serif" font-size="14.00">a_broken</text>
</g>
<!-- a_broken&#45;&gt;a1 -->
<g id="edge4" class="edge">
<title>a_broken&#45;&gt;a1</title>
<path fill="none" stroke="black" d="M289.02,-30.25C282.3,-28.42 275.36,-26.85 268.7,-25.85 218.59,-18.32 204.11,-14.67 154.7,-25.85 150.96,-26.69 147.17,-27.93 143.48,-29.37"/>
<polygon fill="black" stroke="black" points="141.79,-26.29 134.08,-33.56 144.64,-32.69 141.79,-26.29"/>
<text text-anchor="middle" x="211.7" y="-29.65" font-family="Times New Roman,serif" font-size="14.00">act_a, 1.0, (0.0, 0.0)</text>
</g>
<!-- a1&#45;&gt;a_broken -->
<g id="edge3" class="edge">
<title>a1&#45;&gt;a_broken</title>
<path fill="none" stroke="black" d="M136.72,-44.85C169.21,-44.85 231.24,-44.85 276.41,-44.85"/>
<polygon fill="black" stroke="black" points="276.63,-48.35 286.63,-44.85 276.63,-41.35 276.63,-48.35"/>
<text text-anchor="middle" x="211.7" y="-48.65" font-family="Times New Roman,serif" font-size="14.00">a, 0.05, (1.0, 1.0)</text>
</g>
<!-- a1&#45;&gt;a1 -->
<g id="edge2" class="edge">
<title>a1&#45;&gt;a1</title>
<path fill="none" stroke="black" d="M106.5,-66.7C105.69,-76.84 108.15,-85.69 113.85,-85.69 117.5,-85.69 119.82,-82.06 120.8,-76.78"/>
<polygon fill="black" stroke="black" points="124.31,-76.83 121.2,-66.7 117.31,-76.55 124.31,-76.83"/>
<text text-anchor="middle" x="113.85" y="-89.49" font-family="Times New Roman,serif" font-size="14.00">a, 0.95, (1.0, 1.0)</text>
</g>
</g>
</svg>
